# xmcd
#
# Track frame offsets:
#  150
#  13799
#  32690
#  44273
#  62180
#  73916
#  90406
#  103611
#  114184
#  127396
#  137825
#  167360
#
# Disc length: 2692 seconds
#
# Revision: 0
# Processed by: cddbd v1.5.1PL2 Copyright (c) Steve Scherf et al.
# Submitted via: AltoMP3_Maker 3.0
#
DISCID=a30a820c
DTITLE=Dalreen - The Ultimate Collection of Dalreen
DYEAR=1900
DGENRE=
TTITLE0=Oba Ma Sathuvei Kiya
TTITLE1=Ran Kurullai
TTITLE2=Chuda Manike
TTITLE3=Gepalata Awa
TTITLE4=Tikki Tikiri Tikiri Sina
TTITLE5=Ranmini Agana
TTITLE6=Apa Dedena Pamanak
TTITLE7=Oba Ha Samada
TTITLE8=Prana Hatak
TTITLE9=Adara Lokaye
TTITLE10=Surangi
TTITLE11=Udin Udin
EXTD=
EXTT0=
EXTT1=
EXTT2=
EXTT3=
EXTT4=
EXTT5=
EXTT6=
EXTT7=
EXTT8=
EXTT9=
EXTT10=
EXTT11=
PLAYORDER=
